<?xml version="1.0" encoding="UTF-8"?>
<svg width="17px" height="45px" viewBox="0 0 17 45" version="1.1" xmlns="http://www.w3.org/2000/svg" xmlns:xlink="http://www.w3.org/1999/xlink">
    <!-- Generator: Sketch 48.1 (47250) - http://www.bohemiancoding.com/sketch -->
    <title>assets/logo-icon</title>
    <desc>Created with Sketch.</desc>
    <defs>
        <polygon id="path-1" points="0 0.0866037736 16.7819383 0.0866037736 16.7819383 44.999783 0 44.999783"></polygon>
    </defs>
    <g id="Symbols" stroke="none" stroke-width="1" fill="none" fill-rule="evenodd">
        <g id="assets/logo-icon">
            <g id="Group-3">
                <mask id="mask-2" fill="white">
                    <use xlink:href="#path-1"></use>
                </mask>
                <g id="Clip-2"></g>
                <path d="M15.4955,20.1651792 C15.2779,20.2424434 15.13,20.1201792 15.0314,19.9622547 C14.9345,19.8085755 14.8733,19.6294245 14.8172,19.4545189 C14.76365,19.2906509 14.73645,19.1182925 14.6982,18.9501792 C15.03905,18.8627264 15.1844,18.9348962 15.41135,19.2855566 C15.6196,19.3093302 15.82785,19.3339528 16.05565,19.3594245 C16.07775,19.6260283 16.0854,19.9164057 16.3183,20.1244245 C16.3659,20.2246132 16.42115,20.3239528 16.4611,20.4275377 C16.5019,20.537066 16.5291,20.6525377 16.5648,20.7722547 C16.1806,20.7926321 15.80405,20.5693302 15.4955,20.1651792 Z M16.0514,24.0097075 C15.91455,23.9995189 15.77005,24.0088585 15.63745,23.9731981 C15.4836,23.9332925 15.3323,23.866217 15.1946,23.7830094 C15.1487,23.7558396 15.15125,23.6446132 15.1317,23.5715943 C15.19715,23.5614057 15.26345,23.5393302 15.3272,23.5444245 C15.3952,23.551217 15.589,23.6233868 15.67485,23.5919717 C15.6366,23.4034811 15.20055,23.4501792 15.01695,23.3949906 C15.03735,23.1063113 15.5244,22.4695189 15.7301,22.1502736 C15.7437,22.1375377 15.75815,22.1256509 15.77345,22.1137642 C16.05565,22.427066 16.20525,23.4527264 16.0514,24.0097075 Z M14.81295,22.0568774 L15.21415,22.0568774 C15.21245,22.0865943 15.21075,22.1171604 15.2082,22.1460283 C15.15465,22.2165 15.07645,22.8150849 15.01865,23.0706509 C15.0042,23.1249906 14.9566,23.1699906 14.89625,23.2582925 C14.6013,22.8524434 14.85545,22.4610283 14.81295,22.0568774 Z M15.24985,22.2589528 C15.3748,21.9779151 15.39775,21.6849906 15.4071,21.3810283 C15.6723,21.4981981 15.59495,21.7928208 15.7318,21.9549906 C15.6706,21.9881038 15.53035,22.1638585 15.20055,22.7199906 C15.20055,22.5773491 15.25495,22.426217 15.25495,22.3183868 C15.25325,22.2963113 15.25155,22.276783 15.24985,22.2589528 Z M14.6795,21.9099906 C14.6795,21.6230094 14.66845,21.3572547 14.68375,21.0923491 C14.6931,20.9115 14.7968,20.8732925 14.96085,20.9683868 C15.0229,21.0040472 15.079,21.0515943 15.1419,21.0855566 C15.2048,21.1169717 15.2728,21.1381981 15.334,21.1611226 C15.3,21.4226321 15.27195,21.6425377 15.24135,21.8828208 C15.06285,21.8913113 14.8937,21.8998019 14.6795,21.9099906 Z M15.43175,15.9173491 L15.43175,16.6314057 C14.85035,16.6730094 14.5809,16.3418774 14.7407,15.751783 C14.9651,15.8052736 15.1895,15.8596132 15.43175,15.9173491 Z M14.67185,14.7142358 C14.89455,14.7677264 15.06285,14.7838585 15.2082,14.850934 C15.2983,14.8916887 15.39265,14.9978208 15.41645,15.091217 C15.4598,15.2652736 15.45385,15.451217 15.47255,15.6872547 C15.2082,15.6218774 14.99825,15.5836698 14.79935,15.5148962 C14.74155,15.4953679 14.6846,15.3934811 14.6778,15.3247075 C14.6608,15.1430094 14.67185,14.9579151 14.67185,14.7142358 Z M14.47805,13.1248019 C14.6132,13.0789528 14.7543,13.0314057 14.9294,12.9711226 C15.08325,13.5442358 15.2898,14.0689528 15.2762,14.6828208 C15.15295,14.6556509 15.06625,14.6335755 14.97785,14.6191415 C14.82145,14.5936698 14.7594,14.5079151 14.7424,14.3457453 C14.7169,14.0901792 14.6676,13.8354623 14.6149,13.5832925 C14.58515,13.4372547 14.5299,13.2963113 14.47805,13.1248019 Z M14.2392,13.0721604 C14.1236,12.8463113 14.1168,12.6094245 14.1219,12.3776321 C14.1253,12.1594245 14.30465,12.1356509 14.47465,12.0940472 C14.67865,12.2935755 14.7509,12.5457453 14.8155,12.7936698 C14.7883,12.8208396 14.7764,12.842066 14.76025,12.8497075 C14.5911,12.9227264 14.42195,12.9948962 14.2392,13.0721604 Z M14.3004,21.8131981 C14.08705,21.7860283 13.88815,21.6331981 13.6901,21.6450849 C13.52095,21.6561226 13.35945,21.6544245 13.19965,21.646783 L13.11465,21.5627264 C13.1189,21.3631981 12.62165,20.3451792 12.4763,20.0514057 C12.6905,20.0539528 12.9353,20.0624434 13.0934,20.0548019 C13.09,20.0013113 12.9064,19.8926321 12.9013,19.8179151 C12.97865,19.8187642 13.0611,19.8034811 13.1308,19.8255566 C13.19625,19.845934 13.2447,19.9130094 13.3076,19.9478208 C13.4963,20.0921604 13.45805,20.0913113 13.21835,20.0964057 C13.379,20.2050849 13.67225,20.2942358 13.8295,20.340934 C14.18055,20.446217 14.2528,20.5396132 14.27915,20.9089528 C14.29615,21.1551792 14.31995,21.4005566 14.3361,21.646783 C14.33865,21.6951792 14.31485,21.7435755 14.3004,21.8131981 Z M14.1338,22.681783 C14.05645,22.7785755 14.0267,22.9161226 13.95615,23.0791415 C13.88135,23.0290472 13.7887,23.0001792 13.75555,22.9390472 C13.56685,22.5900849 13.3909,22.2343302 13.19285,21.8446132 C13.2974,21.8157453 13.37135,21.7834811 13.44615,21.7792358 C13.55835,21.7715943 13.67905,21.7622547 13.78445,21.7928208 C13.95105,21.842066 14.1967,21.780934 14.25535,22.0110283 C14.314,22.2402736 14.30125,22.4737642 14.1338,22.681783 Z M13.8346,24.8672547 C13.81505,24.8706509 13.79635,24.8740472 13.7768,24.8774434 C13.7445,24.7628208 13.70285,24.4698962 13.6595,24.3179151 C13.4844,24.6855566 13.75215,25.1134811 13.70625,25.4488585 L13.61275,25.4649906 L13.2651,25.0166887 L13.00925,24.4571604 L12.3318,23.2608396 C12.3318,23.2608396 13.35775,23.5673491 13.4929,23.6497075 C13.6272,23.732066 13.33225,23.7380094 13.33225,23.7380094 L13.44105,23.8356509 L13.69945,23.8483868 C13.79805,23.8687642 13.906,23.8899906 14.03265,23.9163113 C13.96295,24.2525377 13.8992,24.5598962 13.8346,24.8672547 Z M13.71305,25.7630094 C13.57195,25.8648962 13.55495,25.892066 13.3824,25.8598019 C13.141,25.7400849 12.886,25.6874434 12.66245,25.7893302 C12.5766,25.8283868 12.46185,25.7298962 12.39725,25.6628208 C11.9068,25.0515 11.33645,24.3433868 10.9106,23.8551792 C10.829,23.7286698 10.7695,23.5885755 10.69045,23.4382925 C10.8528,23.3584811 11.00325,23.3780094 11.152,23.4119717 C11.05,23.3865 10.948,23.3610283 10.8443,23.3423491 C10.79585,23.3338585 10.75505,23.3168774 10.72105,23.2948019 L11.03385,23.3839528 C11.03385,23.3839528 11.29565,23.401783 11.4563,23.4781981 C11.61695,23.5563113 12.3624,23.6055566 12.3624,23.6055566 C12.3624,23.6055566 12.88175,24.3077264 13.00925,24.7415943 C13.1172,25.1083868 13.5405,25.4649906 13.6731,25.5694245 L13.67225,25.5711226 C13.68585,25.5813113 13.69945,25.5906509 13.71305,25.5999906 C13.7581,25.6331038 13.80485,25.6653679 13.8567,25.7018774 C13.8329,25.7298962 13.73345,25.7477264 13.71305,25.7630094 Z M13.66545,26.8744245 C13.2345,26.6265 12.9489,26.3140472 12.7024,25.9107453 C13.05515,25.8181981 13.35095,25.9523491 13.6816,26.0032925 C13.72325,26.2979151 13.7292,26.5577264 13.66545,26.8744245 Z M13.5014,28.1972547 C13.3875,28.1836698 13.23365,28.1429151 13.1376,28.1225377 C12.5392,27.9926321 12.08955,27.9450849 11.4767,27.9654623 C11.17495,27.9739528 11.1248,28.0316887 11.1214,27.7234811 C11.1639,27.5494245 11.08825,27.3787642 11.08825,27.1936698 L11.41805,27.1936698 C11.59145,27.2581981 11.7385,27.2700849 11.83115,27.316783 C11.968,27.3864057 12.16775,27.4823491 12.28165,27.4984811 C12.55365,27.6598019 12.85625,27.6190472 13.1767,27.6292358 C13.2345,27.8389528 13.52945,27.8703679 13.5014,28.1972547 Z M13.23365,28.5929151 C12.6021,28.6073491 12.14055,28.6031038 11.5056,28.3526321 C11.4546,28.3288585 11.32795,28.2991415 11.27865,28.2575377 C11.57955,28.0792358 12.8367,28.1785755 13.43,28.4188585 C13.45295,28.5453679 13.3909,28.5895189 13.23365,28.5929151 Z M13.3246,29.0284811 C13.25235,29.0981038 13.11295,29.1210283 13.03815,29.1685755 C12.9421,29.115934 12.91235,28.9911226 12.8316,28.9478208 C12.69475,28.8756509 12.5154,28.891783 12.3641,28.8136698 C12.36835,28.7856509 12.3743,28.7576321 12.37855,28.7304623 C12.6735,28.7304623 12.96675,28.7236698 13.26,28.7355566 C13.3144,28.7381038 13.39345,28.8060283 13.4096,28.8595189 C13.4249,28.9113113 13.3671,28.9868774 13.3246,29.0284811 Z M12.59785,36.2760283 C12.35985,35.9542358 12.41765,35.371783 12.7398,35.0228208 C12.97695,35.4354623 12.90555,36.0060283 12.59785,36.2760283 Z M12.06065,35.6222547 C12.10315,35.8014057 12.1754,35.9805566 12.1771,36.1597075 C12.17965,36.3363113 12.1193,36.5154623 12.06745,36.6878208 C12.0564,36.7277264 11.97395,36.7642358 11.9204,36.7684811 C11.80055,36.7803679 11.67645,36.7718774 11.56765,36.7718774 C11.4427,36.4398962 11.44355,35.4600849 11.5685,35.1586698 C11.66625,35.2376321 11.7589,35.3123491 11.8507,35.386217 C11.798,35.3123491 11.7555,35.2274434 11.69005,35.1654623 C11.43845,34.9294245 11.424,34.875934 11.56595,34.5040472 C11.8473,34.4879151 12.1397,34.470934 12.42955,34.4539528 C12.48565,34.6008396 12.32415,34.7723491 12.51795,34.8063113 C12.43125,35.0695189 12.3556,35.3021604 12.2774,35.5339528 C12.24,35.6460283 12.18985,35.7300849 12.06065,35.6222547 Z M11.92975,37.5615 C11.87025,37.7915943 11.73765,37.907066 11.4784,37.936783 C11.39765,37.6608396 11.45375,37.4001792 11.5039,37.1446132 C11.98075,37.0461226 12.0445,37.1199906 11.92975,37.5615 Z M11.2829,30.7919717 C11.72745,30.7919717 12.0836,30.7860283 12.4389,30.797066 C12.4882,30.7987642 12.58,30.887066 12.5749,30.9252736 C12.56555,30.9898019 12.5086,31.067066 12.44995,31.1018774 C12.3947,31.1341415 12.30885,31.1332925 12.23915,31.1231038 C11.9765,31.0831981 11.713,31.0390472 11.4546,30.9813113 C11.4053,30.9719717 11.3713,30.8938585 11.2829,30.7919717 Z M9.9807,31.2326321 C9.8226,31.2368774 9.65515,31.2232925 9.49535,31.0577264 C10.0436,30.8964057 10.56805,30.8548019 11.1248,30.8199906 C11.1724,30.9388585 11.2183,31.0560283 11.26335,31.1723491 C10.8137,31.1952736 10.39635,31.2224434 9.9807,31.2326321 Z M12.3947,29.0938585 C12.257,29.0998019 12.172,29.086217 12.0547,29.0777264 C11.8099,29.0590472 11.5889,29.0403679 11.34495,29.0148962 C11.19705,29.0013113 11.1401,28.9529151 11.14605,28.8247075 C11.152,28.7032925 11.19365,28.5589528 11.3305,28.5997075 C11.6977,28.7083868 12.1023,28.7245189 12.40745,28.9987642 C12.4202,29.0089528 12.3794,29.0089528 12.3947,29.0938585 Z M12.69305,29.6754623 C12.34965,29.7374434 12.0003,29.7484811 11.645,29.8113113 C11.62545,29.8138585 11.61185,29.8257453 11.594,29.8181038 C11.46395,29.7663113 11.3305,29.7374434 11.1962,29.7238585 C11.2625,29.5854623 11.1622,29.1957453 11.20385,29.1626321 C11.2676,29.1142358 11.3747,29.1031981 11.46225,29.1074434 C11.7793,29.1252736 12.08785,29.2008396 12.41425,29.1830094 C12.6888,29.2084811 12.78485,29.3706509 12.69305,29.6754623 Z M12.84435,30.4905566 C12.81885,30.5644245 12.7279,30.6671604 12.6667,30.6671604 C12.32755,30.6671604 11.98925,30.6391415 11.6501,30.6196132 C11.6331,30.6187642 11.6178,30.5958396 11.5974,30.5805566 C11.55065,30.4285755 11.63225,30.3385755 11.76655,30.3114057 C12.1176,30.241783 12.4729,30.1865943 12.8724,30.1178208 C12.86305,30.2765943 12.87835,30.3929151 12.84435,30.4905566 Z M12.1873,33.8545189 C12.0326,33.8621604 11.87875,33.8748962 11.7249,33.8816887 C11.5753,33.8876321 11.48435,33.8095189 11.47755,33.6660283 C11.46735,33.4537642 11.475,33.2406509 11.475,32.9961226 C11.6807,33.0080094 11.84135,33.0181981 12.02835,33.0292358 C11.9646,32.9723491 11.91275,32.9239528 11.84305,32.8628208 C12.0173,32.6785755 12.2298,32.7948962 12.42275,32.7507453 C12.2196,32.6887642 11.9918,32.8305566 11.82605,32.6250849 C11.88895,32.4196132 12.0581,32.4535755 12.20515,32.4442358 C12.00625,32.3423491 11.9833,32.1547075 12.1686,32.041783 C12.34455,31.9322547 12.54515,31.9407453 12.74065,31.9764057 C12.8571,31.9976321 12.8673,32.102066 12.86305,32.1963113 C12.8435,32.5749906 12.818,32.9528208 12.7942,33.3391415 C12.6752,33.3518774 12.59785,33.3603679 12.51795,33.3697075 C12.699,33.8307453 12.699,33.8307453 12.1873,33.8545189 Z M9.16215,30.8607453 C9.14345,30.7614057 9.1137,30.6544245 9.10265,30.5440472 C9.09075,30.4141415 9.1426,30.3275377 9.29305,30.3249906 C9.8481,30.3131038 10.40315,30.2995189 10.95905,30.285934 C11.0092,30.2850849 11.06445,30.2850849 11.11035,30.3029151 C11.15455,30.3198962 11.21915,30.3606509 11.21915,30.392066 C11.22,30.4438585 11.19025,30.5151792 11.1486,30.5457453 C11.0942,30.5856509 11.0177,30.601783 10.94885,30.6119717 C10.3598,30.6960283 9.7716,30.7766887 9.16215,30.8607453 Z M9.04315,29.7408396 C8.85785,29.7196132 8.72015,29.7034811 8.56205,29.6856509 C8.5527,29.5294245 8.5425,29.3986698 8.5391,29.267066 C8.5289,28.9223491 8.53145,28.9223491 8.9148,28.8068774 C9.1562,29.0751792 9.0593,29.3876321 9.04315,29.7408396 Z M9.0117,33.6431038 C8.993,33.8630094 8.8706,33.9181981 8.6547,33.8782925 C8.364,33.8256509 8.22885,33.6439528 8.194,33.3781981 C8.1668,33.166783 8.1634,32.9511226 8.14725,32.7040472 L8.90205,32.7040472 C8.95815,33.0181981 9.0389,33.3247075 9.0117,33.6431038 Z M8.99385,34.9633868 C9.10265,34.8716887 9.24715,34.8988585 9.29475,35.0347075 C9.48515,35.5891415 9.51405,36.1427264 9.2514,36.6861226 C9.24035,36.7098962 9.2089,36.7243302 9.17575,36.7506509 C9.00575,36.6598019 8.92075,36.5307453 8.9131,36.3354623 C8.9012,35.9856509 8.8825,35.6358396 8.8536,35.2877264 C8.84255,35.1476321 8.89525,35.0457453 8.99385,34.9633868 Z M9.40865,38.4852736 C9.1545,38.5200849 8.92415,38.5515 8.70485,38.581217 C8.47535,38.2432925 8.4796,38.0038585 8.7074,37.6948019 C8.6173,37.8060283 8.5289,37.8060283 8.4898,37.6625377 C8.4558,37.5343302 8.4473,37.3984811 8.43795,37.2643302 C8.42095,37.0257453 8.6292,36.9646132 8.7788,36.871217 C8.94115,36.7693302 9.00405,36.9433868 9.1273,37.0147075 C9.04145,37.1683868 8.9675,37.2999906 8.8927,37.4315943 C8.95475,37.3679151 9.01595,37.305934 9.10945,37.2099906 C9.3058,37.6328208 9.4112,38.026783 9.40865,38.4852736 Z M9.5778,39.2613113 C9.58035,39.4175377 9.51745,39.5126321 9.3789,39.5143302 C9.17235,39.5177264 8.96835,39.4854623 8.79665,39.3564057 C8.6717,39.2630094 8.6037,39.1356509 8.6326,38.9828208 C8.6632,38.8206509 8.8077,38.8011226 8.94115,38.7824434 C8.9726,38.7781981 9.0032,38.7798962 9.0338,38.7765 C9.469,38.7357453 9.5693,38.8240472 9.5778,39.2613113 Z M8.24585,36.811783 C8.194,36.8049906 8.1311,36.7591415 8.1022,36.7124434 C8.02655,36.5910283 7.9543,36.4636698 7.90245,36.3303679 C7.735,35.9041415 7.6738,35.4583868 7.66105,34.9786698 C7.8455,34.8665943 8.007,34.7978208 8.20675,34.8436698 C8.54335,34.9200849 8.66235,35.0415 8.6887,35.386217 C8.7142,35.7046132 8.73205,36.0230094 8.7414,36.3422547 C8.74565,36.5137642 8.40905,36.8313113 8.24585,36.811783 Z M7.2573,29.0853679 C7.2386,28.9113113 7.2709,28.8714057 7.45705,28.8561226 C7.51825,28.8510283 7.5803,28.8552736 7.64235,28.8552736 L7.64235,28.8501792 C7.69335,28.8527264 7.7452,28.8510283 7.7962,28.8578208 C8.10305,28.8985755 8.12685,28.9257453 8.14725,29.2424434 C8.1498,29.2933868 8.1566,29.3460283 8.16,29.3961226 C8.1804,29.6771604 8.09965,29.7527264 7.8251,29.7094245 C7.4749,29.6508396 7.2964,29.4564057 7.2573,29.0853679 Z M7.1808,28.4978208 C7.1179,28.3475377 7.0567,28.1904623 7.1366,28.007066 C7.28195,27.991783 7.4256,27.9765 7.6177,27.9552736 C7.66445,27.991783 7.75285,28.0605566 7.8404,28.1284811 L7.84125,28.1276321 C7.86165,28.2541415 7.8846,28.3831981 7.9067,28.5165 C7.70695,28.6379151 7.5089,28.6081981 7.3168,28.5988585 C7.26835,28.5954623 7.1995,28.5445189 7.1808,28.4978208 Z M6.87055,17.3293302 C6.9326,17.2783868 7.0822,16.9294245 7.1893,16.6407453 C7.1791,16.7001792 7.1672,16.7485755 7.15445,16.7808396 C7.23265,16.6093302 7.3508,16.0973491 7.5905,15.9861226 C7.61685,16.0880094 7.64915,16.1695189 7.6585,16.2552736 C7.68825,16.5210283 7.71035,16.7613113 7.73245,17.0296132 C7.7537,17.2928208 7.446,17.6468774 7.18505,17.6825377 C6.98275,17.7105566 6.8,17.550934 6.87055,17.3293302 Z M6.7813,17.1331981 C6.63595,16.7698019 6.5552,16.4598962 6.4192,16.0931038 C6.3376,15.8757453 6.1098,15.6592358 6.18035,15.407066 C6.18545,15.3900849 6.1693,15.3654623 6.1574,15.3484811 C6.17865,15.3654623 7.34995,15.6915 7.3967,15.7305566 C7.5004,15.8197075 7.3916,15.8782925 7.3151,15.9997075 C7.28535,16.0464057 7.26495,16.1355566 7.2471,16.2408396 C7.1349,16.4378208 6.8816,17.116217 6.8289,17.2452736 C6.80595,17.2189528 6.7915,17.1595189 6.7813,17.1331981 Z M6.63255,25.4590472 C6.11065,25.2068774 5.84715,24.7432925 5.54115,24.3179151 C5.55305,24.2966887 5.56495,24.2746132 5.576,24.2533868 C5.6848,24.2618774 5.79275,24.2695189 5.90155,24.2780094 C5.79105,24.2236698 5.6763,24.1778208 5.57345,24.1132925 C5.45955,24.0419717 5.3873,23.9222547 5.4434,23.7991415 C5.48335,23.7108396 5.5845,23.6157453 5.67715,23.5885755 C6.11065,23.462066 6.5382,23.8483868 6.4838,24.3433868 C6.2866,24.3196132 6.0894,24.2958396 5.8905,24.271217 C5.99505,24.316217 6.1013,24.3544245 6.1999,24.4079151 C6.5654,24.6048962 6.7371,25.0005566 6.63255,25.4590472 Z M6.47445,26.6664057 C6.04265,26.3327264 5.9636,25.8742358 5.83865,25.4089528 C6.375,25.5278208 6.66655,26.0941415 6.47445,26.6664057 Z M5.4842,21.8480094 C5.9058,21.7987642 6.11745,21.9048962 6.25515,22.2258396 C6.3767,22.5111226 6.3937,22.8082925 6.2832,23.102066 C6.205,23.311783 6.06475,23.400934 5.8871,23.3771604 C5.6763,23.3508396 5.4689,23.1589528 5.44425,22.9713113 C5.4196,22.7879151 5.3669,22.6036698 5.37285,22.4219717 C5.3805,22.2334811 5.44425,22.0441415 5.4842,21.8480094 Z M5.44255,13.4185755 C5.7171,13.3998962 5.76215,13.4168774 5.81995,13.6053679 C5.8854,13.8201792 5.9296,14.040934 5.8548,14.2616887 C5.61765,14.2939528 5.51905,14.2447075 5.46295,14.0434811 C5.4043,13.8354623 5.41705,13.6240472 5.44255,13.4185755 Z M6.0265,18.8763113 C6.03245,19.276217 6.06475,19.6786698 5.93895,20.0675377 C5.8514,20.3332925 5.72815,20.3995189 5.44085,20.3400849 C5.44085,19.9588585 5.4315,19.5716887 5.44425,19.1853679 C5.4519,18.9773491 5.6661,18.9365943 5.7953,18.8304623 C5.7103,18.855934 5.6253,18.8805566 5.4927,18.9204623 C5.4927,18.7455566 5.49525,18.6063113 5.49185,18.4679151 C5.48335,18.151217 5.46465,17.8345189 5.46465,17.5178208 C5.46465,17.4150849 5.51055,17.3115 5.5352,17.2147075 C5.89645,17.2902736 5.95765,17.3785755 5.9143,17.6884811 C5.9058,17.7479151 5.94575,17.8158396 5.96955,17.8786698 C6.08685,18.1945189 6.1183,18.4976321 5.8548,18.7642358 C5.9432,18.7540472 6.0248,18.7582925 6.0265,18.8763113 Z M5.92535,10.0452736 C6.00525,9.71499057 6.4787,9.55112264 6.76685,9.73112264 C6.80595,9.75574528 6.8357,9.80583962 6.8561,9.84999057 C6.98615,10.1199906 7.1043,10.3950849 7.2403,10.6625377 C7.3338,10.8442358 7.34825,11.0115 7.1944,11.2203679 C6.9853,11.1685755 6.7762,11.115934 6.56625,11.0658396 C6.49655,11.0488585 6.42515,11.0361226 6.35375,11.0250849 C6.00525,10.9732925 5.99165,10.9758396 5.93045,10.621783 C5.8973,10.4341415 5.882,10.2269717 5.92535,10.0452736 Z M6.16505,11.2865943 C6.596,11.2611226 6.91815,11.4105566 7.24965,11.521783 C7.1791,11.8198019 7.12045,11.8741415 6.902,11.8189528 C6.6164,11.7476321 6.37585,11.5981981 6.16505,11.2865943 Z M6.1472,15.3331981 C6.02565,15.1582925 6.02735,14.9197075 6.15655,14.7719717 C6.23985,14.6777264 6.3444,14.6429151 6.4634,14.6845189 C6.87905,14.8254623 7.1553,15.1226321 7.35335,15.4987642 C7.3661,15.5216887 6.06305,15.1701792 6.1472,15.3331981 Z M7.4001,9.65385849 C7.62535,9.71499057 7.8506,9.7769717 8.1141,9.84914151 C7.98065,9.91451887 7.56415,10.6778208 7.61855,10.8357453 C7.5412,10.907066 7.50805,10.8934811 7.4579,10.7949906 C7.29385,10.4664057 7.14085,10.1310283 6.9836,9.79989623 C7.0992,9.6360283 7.23775,9.60885849 7.4001,9.65385849 Z M8.68105,8.63074528 C8.653,8.75725472 8.63175,8.84980189 8.61135,8.93980189 C8.31385,9.08838679 8.02485,9.06121698 7.74435,8.89310377 C7.62025,8.81838679 7.5123,8.72414151 7.50805,8.52631132 C7.91095,8.30640566 8.2603,8.61376415 8.68105,8.63074528 Z M9.33555,8.79121698 C9.6509,8.90668868 9.82175,9.03319811 9.9858,9.29980189 C9.8719,9.38385849 9.7478,9.33631132 9.6356,9.31678302 C9.3517,9.26753774 9.0712,9.19536792 8.78645,9.14866981 C8.65045,9.12489623 8.61645,9.05272642 8.61985,8.93640566 L8.619,8.93640566 C8.81705,8.70121698 9.0627,8.69357547 9.33555,8.79121698 Z M8.76265,6.2669717 C8.73205,5.89083962 8.57395,5.57838679 8.24755,5.38565094 C8.3759,4.90423585 8.69465,4.77687736 9.0729,5.0655566 C8.9777,5.49348113 9.29985,5.83819811 9.38825,6.2669717 L8.76265,6.2669717 Z M9.0916,2.91829245 C9.1239,3.07282075 9.1477,3.20612264 9.18,3.33857547 C9.23355,3.56951887 9.3075,3.79621698 9.3432,4.02885849 C9.3653,4.17574528 9.33215,4.32942453 9.32195,4.51112264 C8.88845,4.40074528 8.8791,4.3905566 8.84425,4.03989623 C8.8247,3.83442453 8.7907,3.62895283 8.7941,3.42433019 C8.7958,3.20357547 8.87145,3.0074434 9.0916,2.91829245 Z M9.61435,5.44423585 C9.65345,5.72951887 9.6934,6.01904717 9.7359,6.32980189 C9.60585,6.34423585 9.5047,6.32131132 9.45455,6.19904717 C9.35,5.94348113 9.2446,5.68791509 9.15365,5.42640566 C9.0984,5.26848113 9.11115,5.26338679 9.21315,5.11225472 C9.34915,5.22348113 9.48515,5.33640566 9.61435,5.44423585 Z M9.71125,5.66838679 C9.71805,5.50706604 9.7988,5.43234906 9.95265,5.47395283 C10.07675,5.50621698 10.20935,5.56734906 10.30115,5.65395283 C10.5264,5.86961321 10.455,6.12263208 10.15665,6.22366981 C10.06825,6.25253774 9.979,6.27461321 9.8651,6.3060283 C9.7495,6.09800943 9.7036,5.8874434 9.71125,5.66838679 Z M10.24165,2.87753774 C10.47625,3.08470755 10.95565,4.15706604 10.97605,4.68263208 C10.90805,4.63593396 10.82135,4.60112264 10.77205,4.53914151 C10.4754,4.16216038 10.24335,3.74782075 10.1065,3.28593396 C10.04275,3.06857547 10.0759,2.99470755 10.24165,2.87753774 Z M10.3207,10.2651792 L9.86,10.9384811 C9.86,10.9384811 9.8651,11.0573491 9.86,11.1201792 C9.85405,11.1813113 9.605,11.2908396 9.53275,11.4258396 C9.46135,11.5599906 9.05165,12.2799906 9.05165,12.2799906 L9.05165,12.3530094 L9.05165,12.3997075 C8.9743,12.4752736 8.8825,12.2901792 8.755,12.347066 C8.52465,12.1560283 8.35805,12.0931981 8.1804,11.8868774 C8.0937,11.7841415 8.01805,11.6576321 7.92625,11.5608396 C7.7163,11.3375377 7.65935,11.1201792 7.68145,10.8586698 C7.7418,10.7584811 8.1413,9.93234906 8.17955,9.87036792 C8.83575,9.99433019 9.4554,10.1047075 10.0725,10.2269717 C10.15495,10.2439528 10.23825,10.2558396 10.3207,10.2651792 Z M10.5536,8.70461321 C10.89275,8.73857547 11.2319,8.77678302 11.5702,8.81074528 C12.03175,8.85914151 12.4933,8.90074528 12.9557,8.95083962 C13.34585,8.99414151 13.39005,9.04848113 13.42235,9.49848113 C13.2005,9.60885849 13.0339,9.47725472 12.86815,9.35923585 C12.80355,9.41442453 12.74575,9.5069717 12.6837,9.50951887 C12.53495,9.51631132 12.40745,9.4424434 12.3335,9.30065094 C12.3556,9.35329245 12.376,9.40508491 12.41425,9.49848113 C12.0258,9.52310377 11.67305,9.57999057 11.29905,9.41272642 C11.3543,9.35074528 11.38405,9.31678302 11.4155,9.2819717 C10.8851,9.46706604 10.4006,9.22678302 10.32155,8.70376415 C10.40315,8.70376415 10.4788,8.6969717 10.5536,8.70461321 Z M13.5983,12.0422547 C13.64335,12.0881038 13.6629,12.1704623 13.67055,12.2392358 C13.69605,12.4548962 13.70795,12.6714057 13.7309,12.886217 C13.7734,13.2572547 13.5167,13.3769717 13.22855,13.5595189 C13.1529,13.6079151 13.0798,13.6427264 13.0101,13.6673491 C12.99395,13.6350849 11.90085,11.5031038 11.83455,11.4148019 C11.77335,11.3349906 11.26335,10.4315943 11.1741,10.2736698 C11.61015,10.2779151 12.0496,10.3246132 12.4865,10.3568774 C12.79335,10.3806509 12.8996,10.4833868 12.9795,10.7763113 C13.10445,11.2373491 13.25065,11.6881981 13.5983,12.0422547 Z M14.0981,14.9052736 C14.0964,14.9765943 14.08705,15.047066 14.08025,15.1175377 C13.82355,15.1107453 13.6085,15.0003679 13.34245,14.7431038 C13.34755,14.6590472 13.3569,14.5800849 13.35945,14.4994245 C13.3637,14.3143302 13.42745,14.2591415 13.60085,14.2914057 C13.9587,14.356783 14.11085,14.5435755 14.0981,14.9052736 Z M13.91875,15.9810283 C13.7156,15.886783 13.50565,15.7993302 13.31695,15.6796132 C13.11635,15.5539528 13.1036,15.4461226 13.22005,15.2007453 C13.4385,15.3128208 13.6374,15.4155566 13.838,15.5157453 C14.0301,15.6108396 14.0505,15.7933868 14.1168,16.0031038 C14.0233,15.9937642 13.9638,16.0022547 13.91875,15.9810283 Z M11.86345,17.9601792 C11.8252,17.926217 11.7963,17.8574434 11.75805,17.8531981 C11.3288,17.8115943 11.20895,17.4286698 10.96075,17.1790472 C11.2659,16.9515 11.5515,16.9548962 11.77335,17.2172547 C11.8966,17.3624434 12.02325,17.4414057 12.20515,17.4677264 C12.2842,17.4787642 12.3624,17.5178208 12.43465,17.5577264 C12.86135,17.7903679 13.28975,18.0179151 13.70795,18.2649906 C13.8567,18.3524434 13.99015,18.4764057 14.10405,18.6063113 C14.24685,18.7701792 14.24005,18.9094245 14.1253,19.0546132 C14.0131,19.1972547 13.92555,19.2269717 13.71645,19.1327264 C13.04325,18.8313113 12.42275,18.4449906 11.86345,17.9601792 Z M12.98545,21.5669717 C12.84605,21.7155566 12.1975,20.3604623 12.1975,20.3604623 L12.2366,20.0539528 C12.2536,20.0531038 12.2723,20.0531038 12.29015,20.0522547 C12.35135,20.1677264 12.58935,20.610934 12.77805,20.9607453 C12.9472,21.2757453 13.0628,21.4837642 12.98545,21.5669717 Z M12.6582,22.6087642 L12.6327,22.6028208 C12.6327,22.6028208 12.2417,22.6011226 11.76825,22.2530094 L11.84815,22.3676321 C11.8252,22.3404623 11.80395,22.3098962 11.7844,22.2776321 C11.77845,22.2699906 11.7742,22.2615 11.76825,22.2530094 C11.74445,22.2114057 11.72065,22.1689528 11.6977,22.1248019 C11.67815,22.0865943 11.65775,22.0475377 11.63735,22.006783 C11.50135,21.7435755 11.36365,21.4650849 11.10865,21.2825377 C11.06955,21.2536698 11.01345,21.2010283 11.0092,21.1458396 C11.00325,21.0541415 11.03555,20.9556509 11.0415,20.8631038 C11.2999,20.7264057 11.5583,20.5846132 11.82265,20.4547075 C12.0088,20.3621604 12.02155,20.3638585 12.1618,20.5319717 C12.3658,21.1178208 12.84945,21.6204623 12.84945,21.6204623 C12.84435,21.6196132 12.8384,21.617066 12.8333,21.6128208 C13.1104,21.931217 13.4453,22.5221604 13.51585,22.8363113 L12.6582,22.6087642 Z M10.55275,23.0154623 C10.53405,22.9466887 10.58845,22.8583868 10.62245,22.7641415 C10.76355,22.7785755 11.8031,23.0791415 11.8031,23.0791415 L12.0411,23.0791415 L12.15075,23.2251792 L12.27485,23.4781981 L12.23405,23.4943302 L12.0411,23.4943302 L10.8137,23.2506509 L10.72105,23.2948019 C10.6267,23.2302736 10.58165,23.1224434 10.55275,23.0154623 Z M10.6131,25.3299906 C10.5638,25.3155566 10.4941,25.3002736 10.41165,25.2824434 C10.387,25.2765 10.36065,25.2663113 10.33175,25.2578208 C10.34365,25.261217 10.3275,25.261217 10.2952,25.2586698 C10.01725,25.1992358 9.6713,25.1236698 9.5421,25.021783 C9.54295,25.0149906 9.6169,24.2448962 9.7801,23.9180094 C9.8124,23.8781038 9.84895,23.8339528 9.89145,23.7821604 C10.24165,24.2440472 10.5621,24.6702736 10.8715,25.0803679 C10.761,25.2663113 10.7134,25.3325377 10.6131,25.3299906 Z M10.62925,26.1077264 C9.37975,25.7528208 9.35,25.4734811 9.34915,25.4649906 C9.3823,25.2365943 9.4911,25.1746132 9.7597,25.2060283 C9.76735,25.2060283 9.80475,25.2111226 9.86085,25.2204623 C9.928,25.2416887 10.5468,25.3698962 10.5774,25.3741415 C10.73635,25.3996132 10.8256,25.5065943 10.84685,25.6373491 C10.87915,25.8232925 10.9055,26.0100849 10.9293,26.1977264 L10.62925,26.1077264 Z M10.91995,26.956783 C10.91995,26.956783 9.81835,26.6069717 9.47835,26.4931981 C9.231,26.4099906 9.2072,26.2877264 9.21145,26.2274434 C9.214,26.2155566 9.2174,26.2036698 9.2191,26.191783 C9.24545,26.0364057 9.19955,25.8631981 9.3177,25.7205566 C9.32025,25.7180094 9.3228,25.7146132 9.3245,25.7103679 C9.49535,25.7816887 10.36065,26.1442358 10.37,26.145934 C10.3785,26.1484811 10.7984,26.2877264 10.94035,26.3352736 L10.91995,26.956783 Z M9.12645,23.3364057 C9.1256,23.2277264 9.1103,23.1232925 9.1171,23.0103679 C9.32195,22.9874434 9.41885,23.0986698 9.50045,23.2149906 C9.58715,23.3389528 9.6611,23.4731038 9.73675,23.6055566 C9.7478,23.6250849 9.75885,23.6446132 9.77075,23.6641415 C9.77075,23.6649906 9.7716,23.6658396 9.7716,23.6666887 C9.7784,23.6981038 9.775,23.7371604 9.73675,23.7787642 C9.65005,23.8721604 9.40015,24.5310283 9.46475,24.9640472 C9.36445,25.0158396 9.26755,25.1330094 9.16555,25.0396132 C9.1052,24.9844245 9.10605,24.8341415 9.11965,24.7280094 C9.17745,24.2686698 9.22165,23.8025377 9.12645,23.3364057 Z M8.9318,20.7281038 C8.92415,20.3995189 8.8332,19.0265943 8.8111,18.6980094 C8.8485,18.6699906 8.8995,18.6657453 8.96495,18.6844245 C9.18255,18.7472547 9.40695,18.7939528 9.6135,18.8831038 C9.7818,18.9544245 9.928,19.0656509 9.95605,19.2855566 C9.97305,19.4171604 10.0062,19.546217 10.0385,19.6684811 C10.0351,19.6786698 10.0317,19.6905566 10.0283,19.7024434 C9.9229,20.0760283 10.2714,21.1432925 10.27395,21.1526321 C10.2527,21.1585755 10.2323,21.166217 10.217,21.1789528 C9.92715,21.4166887 9.6186,21.4515 9.28965,21.2825377 C9.0508,21.1585755 8.93775,20.9828208 8.9318,20.7281038 Z M7.5565,25.8334811 C7.531,25.6348019 7.49445,25.4361226 7.49445,25.2365943 C7.49445,25.0735755 7.5888,25.0200849 7.74435,25.066783 C8.07755,25.1669717 8.41245,25.2680094 8.7397,25.3860283 C9.03295,25.4930094 9.08565,25.5872547 9.0712,25.8971604 C9.0661,26.0364057 9.044,26.1756509 9.02615,26.3454623 C8.8604,26.2749906 7.73585,25.7723491 7.5565,25.8334811 Z M8.41415,21.6875377 C8.4864,21.8072547 8.52805,21.9448019 8.5765,22.0585755 C8.34955,22.2088585 8.1702,22.3243302 7.9934,22.4431981 C7.85655,22.5357453 7.81405,22.5416887 7.6296,22.4856509 C7.58795,22.2198962 7.54885,21.9702736 7.51145,21.7206509 C7.5021,21.6595189 7.49445,21.5992358 7.4919,21.5372547 C7.48595,21.4115943 7.5514,21.3521604 7.67635,21.3419717 C7.98915,21.3173491 8.24925,21.4115943 8.41415,21.6875377 Z M8.3912,16.6449906 C8.41585,16.831783 8.33425,16.9438585 8.16595,17.0015943 C7.9696,17.0695189 7.8693,17.0160283 7.8489,16.8088585 C7.82,16.5337642 7.8081,16.2569717 7.7877,15.9810283 C7.81575,15.9716887 7.84295,15.9589528 7.871,15.9487642 C8.1583,16.0888585 8.347,16.3130094 8.3912,16.6449906 Z M9.0236,15.6422547 C8.6717,15.5556509 8.364,15.2949906 8.08775,14.867066 C8.50085,14.8551792 8.9539,15.2194245 9.0236,15.6422547 Z M8.70145,18.406783 C8.6938,18.3142358 8.721,18.1936698 8.78135,18.1282925 C8.89865,18.001783 9.0491,17.9066887 9.21145,17.7776321 C9.4112,18.0603679 9.5081,18.3329151 9.52255,18.6903679 C9.4061,18.6606509 9.31345,18.6360283 9.2208,18.6105566 C9.112,18.5808396 9.0015,18.5553679 8.8944,18.5163113 C8.823,18.4891415 8.704,18.4492358 8.70145,18.406783 Z M8.10475,18.6946132 C8.3912,19.1182925 8.44645,19.5691415 8.4558,20.0327264 C8.42435,20.0471604 8.3946,20.0624434 8.364,20.0777264 C8.2178,19.8714057 8.06225,19.6718774 7.9305,19.4579151 C7.82,19.2779151 7.8234,19.0877264 7.9679,18.9128208 C8.01125,18.8584811 8.04355,18.7939528 8.10475,18.6946132 Z M8.5646,17.1119717 C8.57055,17.0907453 8.57565,17.0695189 8.5816,17.0457453 C8.90545,17.1484811 8.8995,17.4040472 9.07715,17.6519717 C8.9505,17.7648962 8.8536,17.8557453 8.70825,17.9848019 C8.63855,17.9083868 8.5935,17.4286698 8.5646,17.1119717 Z M8.61135,17.9644245 C8.6343,18.287066 8.54335,18.3796132 8.228,18.3600849 C8.1617,18.1155566 8.0869,17.8701792 8.0291,17.6222547 C7.93985,17.2342358 8.0444,17.0983868 8.46685,17.0516887 C8.4796,17.0848019 8.4966,17.1196132 8.5068,17.1569717 C8.5119,17.1731038 8.51275,17.190934 8.51445,17.2155566 C8.5136,17.2681981 8.5136,17.326783 8.51275,17.3921604 C8.52975,17.5229151 8.602,17.8336698 8.61135,17.9644245 Z M8.7805,20.6797075 C8.6003,20.5379151 8.56545,20.3256509 8.54505,20.132066 C8.4898,19.6183868 8.4473,19.1072547 8.17955,18.6487642 C8.50765,18.5061226 8.63005,18.5231038 8.69635,18.8032925 C8.68445,18.810934 8.67425,18.8126321 8.66745,18.8024434 L8.77115,19.6031038 C8.81365,20.1269717 8.9131,20.4564057 8.7805,20.6797075 Z M9.03295,24.5335755 C9.03295,25.0616887 9.0049,25.0905566 8.5153,24.9326321 C8.3283,24.8715 8.14385,24.7993302 7.9526,24.7577264 C7.7367,24.7118774 7.6228,24.5785755 7.60495,24.3781981 C7.57605,24.0504623 7.55565,23.7201792 7.5616,23.3915943 C7.5667,23.1572547 7.62195,22.922066 7.6585,22.6597075 C7.85825,22.6537642 7.9866,22.6019717 8.0903,22.4610283 C8.1583,22.3676321 8.28325,22.3056509 8.3946,22.2581038 C8.61645,22.1638585 8.8043,22.2479151 8.89355,22.4703679 C8.8978,22.4797075 8.90035,22.4865 8.9029,22.4915943 C8.91225,22.5883868 8.93945,22.7972547 9.00745,23.2251792 C8.90375,23.6777264 8.96835,24.1073491 9.03295,24.5335755 Z M9.53275,13.8558396 C10.11585,14.1029151 10.71765,14.2990472 11.26335,14.6683868 C10.87745,14.8144245 10.00365,14.4051792 9.53275,13.8558396 Z M11.16475,19.1853679 C11.07635,19.1590472 10.9905,19.1344245 10.9055,19.1089528 C10.65815,19.036783 10.4142,18.9544245 10.16345,18.8966887 C10.01895,18.8627264 9.9076,18.8049906 9.86595,18.6631981 C9.7631,18.3091415 9.6679,17.9542358 9.5642,17.5806509 C10.2969,17.5806509 11.2574,18.5248019 11.16475,19.1853679 Z M10.79075,20.6415 C10.7933,20.521783 11.0942,19.7049906 11.1197,19.5844245 C11.2387,19.4893302 11.36195,19.5419717 11.47755,19.6124434 C11.72745,19.7644245 11.8201,19.9715943 11.9068,20.2831981 C11.7929,20.3426321 11.6331,20.3706509 11.52345,20.4377264 C11.33135,20.5565943 11.01515,20.7136698 11.01515,20.8631038 C10.87575,20.8546132 10.7865,20.7748019 10.79075,20.6415 Z M10.14305,19.6693302 C10.14305,19.6642358 10.14305,19.6599906 10.1422,19.6548962 C10.1422,19.6464057 10.14135,19.6336698 10.13965,19.620934 C10.3309,19.6761226 10.6522,20.8316887 10.6522,20.8316887 L10.6675,20.8198019 C10.6692,20.8452736 10.6692,20.8707453 10.6658,20.8945189 L10.6522,20.8316887 L10.48135,21.0600849 L10.36745,21.0600849 L10.2697,20.8673491 L10.1915,20.3706509 L10.13965,19.7321604 L10.13965,19.7296132 C10.14305,19.710934 10.1439,19.6914057 10.14305,19.6710283 L10.14305,19.6693302 Z M11.11885,19.5852736 C11.03555,19.6803679 10.87235,20.0480094 10.76525,20.3647075 L10.7253,20.3400849 L10.67345,20.3400849 L10.5587,20.2568774 L10.4448,19.9461226 L10.1864,19.5835755 L10.0997,19.1565 C10.2255,19.1760283 10.3445,19.1879151 10.45755,19.2210283 C10.6148,19.2660283 10.7695,19.3271604 10.92335,19.3848962 C11.02705,19.4248019 11.10355,19.486783 11.08655,19.6141415 C11.0976,19.6031038 11.1078,19.5937642 11.11885,19.5852736 Z M11.93315,22.8515943 L12.00625,22.9645189 L10.79245,22.6953679 L10.59355,22.6953679 C10.4567,22.5382925 10.4193,22.2368774 10.55445,22.0526321 C10.5077,22.0033868 10.44055,21.9592358 10.4176,21.8989528 C10.39125,21.8276321 10.3785,21.7342358 10.40315,21.6646132 C10.46095,21.4931038 10.98285,21.3708396 11.101,21.5058396 C11.22255,21.6433868 11.31265,21.8098019 11.41465,21.9634811 C11.5685,22.1986698 11.7215,22.4321604 11.8762,22.6665 L11.86005,22.6953679 L11.93315,22.8515943 Z M10.6216,13.7981038 C10.6199,13.7853679 10.6114,13.771783 10.5961,13.7556509 C10.5944,13.7531038 10.59185,13.7514057 10.59015,13.7480094 C10.5995,13.7556509 10.6029,13.7590472 10.5961,13.7556509 C10.69555,13.8397075 11.72745,14.3822547 11.8507,14.4875377 C11.74445,14.5783868 11.662,14.5843302 11.5651,14.6666887 C11.0466,14.2795189 10.55105,13.8999906 9.9008,13.7921604 C9.5285,13.6452736 9.2327,13.4330094 8.8944,13.2428208 C8.8417,13.2131038 8.81875,13.1298962 8.755,13.0280094 C8.8655,13.0365 10.5587,13.7930094 10.6216,13.7981038 Z M9.2276,12.7248962 C9.7427,12.9031981 10.25525,13.0891415 10.7695,13.2682925 C11.12905,13.3948019 11.4903,13.5136698 11.8507,13.6384811 C12.0326,13.7004623 12.21195,13.770934 12.3369,13.9755566 C12.12015,13.8813113 11.48265,13.7106509 11.38915,13.8558396 C11.662,13.9891415 12.1584,13.9568774 12.37005,14.1114057 C12.15075,14.2829151 12.06065,14.4255566 11.7878,14.2829151 C10.43375,13.5748019 10.2816,13.5264057 10.3734,13.6019717 C9.87955,13.3183868 8.8315,12.8845189 8.8961,12.7834811 C8.9862,12.6425377 9.11115,12.6841415 9.2276,12.7248962 Z M10.14475,11.3069717 L10.98965,11.3069717 C11.00495,11.3069717 11.1503,11.3893302 11.17155,11.5234811 C11.19195,11.6593302 11.4257,12.032066 11.4257,12.032066 C11.4257,12.032066 12.06745,13.2181981 11.9952,13.3990472 L12.0071,13.4041415 C11.9969,13.4075377 11.98585,13.411783 11.97395,13.4194245 C11.93145,13.4474434 11.8762,13.4330094 11.8082,13.4092358 C10.99475,12.9456509 10.16515,12.7393302 9.316,12.5236698 C9.2582,12.5032925 9.1613,12.4701792 9.0916,12.4268774 L9.16555,12.3640472 C9.16555,12.3640472 9.6016,11.5447075 9.6322,11.5192358 C9.6628,11.4929151 9.77245,11.1872547 10.14475,11.3069717 Z M11.5906,11.2280094 L11.186,11.2543302 L10.7355,10.2838585 L10.72275,10.2838585 C10.76695,10.2830094 10.81115,10.2821604 10.8562,10.2796132 C10.9089,10.2779151 10.96075,10.276217 11.01345,10.2745189 C11.14435,10.4655566 11.5906,11.1813113 11.5906,11.1813113 L11.5906,11.2280094 Z M13.51245,16.5235755 C13.19965,16.4522547 12.91065,16.3766887 12.6837,16.1584811 C12.5936,16.0710283 12.5392,15.9572547 12.6208,15.8315943 C13.1019,15.8061226 13.4453,16.0591415 13.51245,16.5235755 Z M12.13035,13.4610283 C12.13035,13.4610283 12.0003,12.8454623 11.72065,12.3530094 C11.44015,11.8605566 11.28545,11.4665943 11.28545,11.4665943 L11.26335,11.3842358 L11.39935,11.3579151 L11.63735,11.3740472 C11.63735,11.3740472 12.3114,12.5330094 12.3216,12.5831038 C12.3318,12.6323491 12.7619,13.4610283 12.7619,13.4610283 L12.886,13.7004623 C12.6174,13.7471604 12.3862,13.6299906 12.13035,13.4610283 Z M11.0262,11.177066 L9.9637,11.1711226 L9.9637,11.0734811 L10.39805,10.322066 L10.46435,10.2787642 C10.5111,10.2813113 10.5587,10.2821604 10.60715,10.2830094 L10.591,10.2830094 L11.0262,11.177066 Z M8.5561,27.5638585 C8.27135,27.4840472 7.9866,27.4050849 7.667,27.315934 C7.56925,26.8786698 7.46385,26.4015 7.35165,25.8980094 L7.565,25.8980094 L7.565,25.8971604 C7.78515,25.9803679 8.84425,26.3675377 8.99385,26.4252736 C9.04145,26.7547075 8.9675,27.0781981 8.9199,27.3991415 C8.8944,27.5723491 8.75415,27.6190472 8.5561,27.5638585 Z M8.5748,28.5088585 C8.4371,28.6022547 8.28495,28.6897075 8.11835,28.5750849 C8.05715,28.5334811 8.00275,28.4706509 7.96535,28.4061226 C7.9458,28.3118774 7.94325,28.0911226 7.8846,28.0928208 C8.13705,27.9085755 8.4099,28.0045189 8.6955,28.0639528 C8.7108,28.231217 8.74055,28.3984811 8.5748,28.5088585 Z M8.59095,27.9552736 C8.4473,27.962066 8.30195,27.9501792 8.15745,27.946783 C7.82425,27.9382925 7.7809,27.8805566 7.84805,27.4568774 C8.13535,27.5536698 8.398,27.6368774 8.6564,27.7336698 C8.69635,27.7489528 8.7431,27.8372547 8.7312,27.8729151 C8.71675,27.9128208 8.6411,27.9527264 8.59095,27.9552736 Z M10.95905,27.1181038 C11.06105,27.332066 11.0143,27.5358396 11.03385,27.8304623 C11.01855,27.9663113 10.88,27.9153679 10.7746,27.8966887 C10.4295,27.8355566 10.1422,27.6394245 9.75375,27.676783 C9.622,27.6538585 9.469,27.6691415 9.3364,27.6530094 C9.1664,27.6326321 9.12985,27.631783 9.1375,27.4619717 C9.14345,27.3380094 9.1562,27.2140472 9.17065,27.090934 C9.1885,26.9372547 9.163,26.7513113 9.2412,26.6383868 C9.2599,26.6103679 9.2701,26.5848962 9.27435,26.5602736 L10.95905,27.1181038 Z M12.1686,26.7980094 C12.04875,26.7699906 11.93145,26.731783 11.81755,26.685934 C11.6654,26.6231038 11.51665,26.551783 11.3696,26.4787642 C11.24635,26.415934 11.05595,26.4380094 11.0126,26.2724434 C10.96415,26.0856509 10.9378,25.8878208 10.9412,25.695934 C10.94205,25.6237642 11.05765,25.5541415 11.152,25.4480094 C11.5685,25.9005566 11.9425,26.3055566 12.34795,26.7445189 C12.2621,26.7716887 12.21025,26.8065 12.1686,26.7980094 Z M11.01855,26.8871604 L11.0126,26.7988585 L11.0126,26.7275377 C11.01345,26.656217 11.02365,26.5857453 11.033,26.4728208 C11.1554,26.5016887 11.26335,26.5144245 11.3611,26.5526321 C11.6841,26.6833868 11.98415,26.8633868 12.34965,26.8922547 C12.48055,26.9041415 12.61315,27.0450849 12.71855,27.152066 C12.8299,27.2649906 12.91065,27.4084811 13.01605,27.5553679 C12.801,27.5952736 12.48735,27.4246132 12.34795,27.4365 C12.2451,27.3490472 11.78525,27.1444245 11.35685,27.0968774 C11.11885,27.0255566 11.04065,27.0281038 11.01855,26.8871604 Z M9.16215,28.5241415 C9.17915,28.3933868 9.1953,28.2600849 9.21485,28.1098019 C9.75545,28.0945189 10.2408,28.2380094 10.7321,28.3280094 C10.7882,28.3381981 10.81115,28.4001792 10.87575,28.4358396 C10.5417,28.6684811 9.94755,28.5258396 9.16215,28.5241415 Z M9.4146,28.8663113 C9.248,28.8544245 9.16215,28.8153679 9.16045,28.621783 C9.34065,28.621783 9.51405,28.6039528 9.6832,28.6243302 C10.04615,28.6693302 10.40315,28.6710283 10.7627,28.5997075 C11.0449,28.5428208 11.12395,28.6115943 11.1282,28.8883868 C11.1299,29.0395189 11.12735,29.5073491 11.12735,29.7187642 C10.83835,29.7000849 10.54595,29.7425377 10.26375,29.761217 C9.91525,29.7501792 9.57865,29.7714057 9.18595,29.7714057 C9.18595,29.5192358 9.15875,29.3307453 9.17405,29.1091415 C9.18425,28.9639528 9.2786,28.9198019 9.48175,28.9384811 C9.7903,28.9673491 10.4448,29.0649906 10.57485,29.0047075 C10.53065,28.8340472 9.74865,28.8900849 9.4146,28.8663113 Z M13.52945,22.9237642 L13.5303,22.9237642 L13.5303,22.9246132 L13.52945,22.9237642 Z M13.98335,23.2795189 L13.98335,23.6683868 L13.7394,23.5563113 L13.61275,23.581783 C13.61275,23.581783 12.7721,23.2396132 12.75765,23.2396132 C12.7415,23.2396132 12.3012,23.1419717 12.3012,23.1419717 L12.10995,22.9398962 L11.90935,22.6002736 C11.9714,22.5900849 12.0207,22.5815943 12.06915,22.5731038 L12.6327,22.7429151 L13.47505,22.9645189 C13.6442,23.0689528 13.8125,23.1733868 13.98335,23.2795189 Z M4.33075,22.2360283 C4.28825,22.2207453 4.2415,22.1791415 4.2245,22.1375377 C4.13015,21.9099906 4.0528,21.6781981 4.1701,21.3988585 C4.4506,21.4430094 4.7294,21.4863113 5.01585,21.5304623 C5.02095,21.6204623 5.03115,21.6900849 5.0286,21.7605566 C5.0133,22.1596132 4.70815,22.3684811 4.33075,22.2360283 Z M5.0218,23.0086698 C5.015,23.1589528 4.9351,23.3075377 4.87305,23.507066 C4.75065,23.3881981 4.68265,23.2905566 4.58915,23.2438585 C4.49905,23.1988585 4.3826,23.2073491 4.2415,23.1869717 C4.21855,23.131783 4.1701,23.0502736 4.15395,22.9628208 C4.10295,22.6936698 4.2347,22.5357453 4.51265,22.5196132 C4.9691,22.4949906 5.03965,22.5518774 5.0218,23.0086698 Z M16.65575,21.0864057 C16.61665,21.0405566 16.5903,20.9624434 16.59795,20.9047075 C16.64215,20.5956509 16.5308,20.3485755 16.3251,20.132066 C16.25625,19.9588585 16.18655,19.7848019 16.10325,19.5784811 C16.26305,19.5903679 16.36845,19.5980094 16.5002,19.6081981 C16.4628,19.1250849 16.3251,18.7260283 15.93665,18.4441415 C15.87715,18.4008396 15.83465,18.3329151 15.7845,18.2768774 L15.77855,18.2777264 C15.78365,18.2293302 15.7879,18.180934 15.79215,18.1333868 C15.912,18.1181038 16.01995,18.1028208 16.14235,18.0866887 C16.08965,17.8031038 15.81085,17.7547075 15.6332,17.5415943 C15.79895,17.567066 15.90775,17.5831981 16.0157,17.6001792 C15.98935,17.5331038 15.95365,17.5237642 15.91795,17.5127264 C15.8304,17.4847075 15.73605,17.4677264 15.65615,17.4235755 C15.5669,17.3734811 15.5227,17.2741415 15.5839,17.1866887 C15.6111,17.1484811 15.71055,17.1442358 15.7743,17.1510283 C15.85845,17.1603679 15.9358,17.2537642 16.04375,17.1501792 C16.0038,16.892066 15.72755,16.8980094 15.57285,16.7502736 C15.5601,16.5745189 15.5397,16.3894245 15.5346,16.2051792 C15.5329,16.1253679 15.5363,16.0175377 15.5856,15.9691415 C15.7029,15.8545189 15.6723,15.7254623 15.67315,15.5921604 C15.6757,15.300934 15.6553,15.0173491 15.5023,14.7532925 C15.4581,14.6777264 15.46745,14.5732925 15.44705,14.4824434 C15.317,13.9093302 15.1929,13.3345189 15.0501,12.7639528 C15.00505,12.5856509 14.9243,12.4115943 14.83505,12.2511226 C14.6965,12.0057453 14.5622,11.7527264 14.3514,11.5693302 C14.16695,11.6448962 14.00715,11.7102736 13.85755,11.7714057 C13.54305,11.4801792 13.2991,10.8985755 13.31015,10.457066 C13.549,10.5165 13.80315,10.4799906 14.01055,10.6506509 C14.02415,10.6616887 14.05815,10.6752736 14.0641,10.6684811 C14.178,10.5538585 14.2868,10.6506509 14.3667,10.7015943 C14.6098,10.8535755 14.84015,11.0276321 15.07135,11.1999906 C15.164,11.2704623 15.24305,11.357066 15.3289,11.4368774 C15.33825,11.4266887 15.34675,11.4165 15.3561,11.4080094 C15.2949,11.2237642 15.232,11.0403679 15.1572,10.8213113 C14.89795,10.665934 14.89795,10.665934 14.88265,10.4205566 C15.1827,10.3976321 15.20735,10.3721604 15.198,10.0741415 C15.19545,9.99178302 15.1895,9.90857547 15.1759,9.82706604 C15.1198,9.49933019 15.0518,9.44499057 14.7237,9.46366981 C14.62,9.46876415 14.518,9.49253774 14.41515,9.49253774 C14.32335,9.49253774 14.2205,9.49168868 14.14485,9.45093396 C14.08875,9.42121698 14.042,9.32612264 14.04115,9.25819811 C14.04115,9.21999057 14.13975,9.15206604 14.1967,9.14951887 C14.3089,9.14272642 14.42195,9.17159434 14.535,9.18687736 C14.65655,9.20300943 14.77895,9.23017925 14.9005,9.23272642 C15.011,9.23442453 15.0654,9.16904717 15.0501,9.04848113 C15.0008,8.69612264 14.71775,8.38706604 14.3599,8.34461321 C14.11425,8.31659434 13.86265,8.3115 13.617,8.33272642 C12.9948,8.38791509 12.40575,8.28942453 11.84985,8.0024434 C11.6909,7.92008491 11.5481,7.82753774 11.5345,7.60678302 C11.81925,7.58980189 12.10315,7.71376415 12.39215,7.57621698 C12.35645,7.5465 12.3488,7.53546226 12.342,7.53546226 C12.06405,7.53461321 11.78525,7.53800943 11.50645,7.53546226 C11.24805,7.53121698 11.2336,7.51763208 11.2013,7.25527358 C11.1741,7.04300943 11.152,6.82989623 11.12905,6.63291509 C10.8069,6.52848113 10.45755,6.66772642 10.2289,6.38668868 C10.40655,6.12857547 10.45755,6.10904717 10.6947,6.1965 C10.8171,6.2415 10.9378,6.28904717 11.0517,6.33319811 C11.1928,6.07678302 11.28545,5.82461321 11.44865,5.63527358 C11.6824,5.36527358 11.65775,5.06725472 11.6416,4.75989623 C11.6382,4.70980189 11.58125,4.62319811 11.54385,4.62065094 C11.30925,4.60451887 11.2795,4.40923585 11.2149,4.2555566 C10.97605,3.68499057 10.7933,3.09319811 10.4414,2.56933019 C10.3343,2.40885849 10.23485,2.30017925 10.0623,2.25178302 C9.64665,2.13461321 9.2429,2.17112264 8.85615,2.36046226 C8.738,2.41904717 8.61985,2.4869717 8.5799,2.64829245 C8.65895,2.67036792 8.72865,2.68395283 8.79495,2.70687736 C8.86805,2.73234906 8.93945,2.76716038 9.01935,2.80112264 C8.74055,3.12716038 8.70655,3.2324434 8.73545,3.64253774 C8.74565,3.77583962 8.7482,3.91168868 8.76945,4.04414151 C8.7958,4.20461321 8.80515,4.34725472 8.64195,4.45253774 C8.60115,4.47970755 8.56885,4.56716038 8.57905,4.61725472 C8.61305,4.7819717 8.51615,4.86008491 8.40565,4.94668868 C8.2586,5.06385849 8.1277,5.19716038 8.13875,5.34489623 C8.31215,5.56480189 8.4592,5.73376415 8.58755,5.91631132 C8.68445,6.05470755 8.6326,6.16423585 8.47025,6.20499057 C8.54675,6.5760283 8.534,6.92499057 8.4575,7.27225472 C8.39205,7.56857547 8.4558,7.79527358 8.7516,7.93876415 C8.874,7.99734906 8.97005,8.11027358 9.0814,8.20027358 C9.03635,8.2724434 9.02275,8.31489623 8.993,8.33951887 C8.82725,8.47706604 8.6564,8.54923585 8.42435,8.47536792 C8.1617,8.39131132 7.89395,8.30131132 7.60495,8.34970755 C7.44515,8.3760283 7.28195,8.39300943 7.11875,8.39895283 C6.9224,8.4074434 6.7235,8.3819717 6.53055,8.4074434 C6.2747,8.43970755 6.0163,8.47961321 5.77575,8.56451887 C5.4655,8.67489623 5.3533,8.88716038 5.36095,9.2174434 C5.3618,9.28621698 5.36095,9.35414151 5.36095,9.41782075 C5.3091,9.43395283 5.27935,9.44838679 5.2496,9.45093396 C4.5543,9.52140566 4.39365,9.88819811 4.3622,10.4655566 C4.3571,10.5589528 4.36645,10.6523491 4.3792,10.7440472 C4.4404,11.1838585 4.5118,11.6219717 4.5679,12.0626321 C4.60445,12.3547075 4.64865,12.6493302 4.56705,12.9915 C4.4999,12.9031981 4.45995,12.8497075 4.4047,12.7766887 C4.42255,13.2674434 4.4421,13.7216887 4.45485,14.175934 C4.4642,14.4934811 4.59085,14.7498962 4.82205,14.9664057 C4.9096,15.0496132 4.99375,15.1523491 5.0405,15.2618774 C5.24535,15.7390472 5.19775,16.2238585 5.08045,16.7485755 C4.9079,16.6755566 4.74725,16.6441415 4.63505,16.5507453 C4.51775,16.4548019 4.4489,16.3019717 4.335,16.1406509 C4.30185,16.4284811 4.27295,16.6831981 4.24405,16.9379151 C4.22025,16.9413113 4.19475,16.9438585 4.1701,16.9464057 C4.1174,16.8394245 4.04855,16.7366887 4.01455,16.6246132 C3.9202,16.3181038 3.82585,16.0115943 3.75615,15.6999906 C3.4782,14.4382925 3.2079,13.1757453 2.93675,11.9140472 C2.6571,10.6115943 2.34685,9.31423585 2.11225,8.00414151 C1.91505,6.90461321 1.7102,5.8110283 1.40165,4.73612264 C0.9724,3.24857547 0.4386,1.78734906 0.2788,0.231877358 C0.2686,0.135933962 0.22185,0.0739528302 0.119,0.0883867925 C0.01275,0.102820755 -0.0085,0.186877358 0.00255,0.275179245 C0.0289,0.510367925 0.05525,0.747254717 0.09435,0.980745283 C0.2703,2.03442453 0.59415,3.04904717 0.90015,4.06706604 C1.22995,5.16659434 1.5368,6.26951887 1.7272,7.40385849 C1.8921,8.38112264 2.06975,9.35753774 2.27545,10.3271604 C2.62565,11.9836698 2.99965,13.636783 3.36855,15.2898962 C3.5173,15.9530094 3.621,16.6322547 3.9831,17.2240472 C3.87005,17.4872547 3.98055,18.2624434 4.2058,18.6801792 C4.25085,18.5315943 4.29505,18.4195189 4.3163,18.3040472 C4.34775,18.1316887 4.3537,17.9542358 4.3894,17.7827264 C4.437,17.5483868 4.54495,17.476217 4.78635,17.4965943 C4.85435,17.5025377 4.92065,17.522066 5.0235,17.5415943 C4.96485,17.6731981 4.91555,17.7835755 4.8654,17.8931038 C4.9249,17.8302736 4.9844,17.7674434 5.10255,17.6443302 C5.1255,17.8379151 5.1544,17.9542358 5.15015,18.0671604 C5.13655,18.4161226 5.10085,18.7633868 5.09405,19.1115 C5.08895,19.3101792 4.96485,19.4248019 4.84925,19.5513113 C4.90195,19.5275377 4.95635,19.5037642 5.0439,19.4647075 C5.1068,19.7168774 5.1085,19.9418774 5.0422,20.1999906 C4.90195,20.1685755 4.7753,20.1405566 4.6478,20.1125377 C4.7906,20.2008396 4.93425,20.2891415 5.0762,20.3774434 C5.0745,20.6627264 5.134,20.9531038 5.0116,21.2298962 C5.00395,21.2468774 4.98695,21.2604623 4.96315,21.2918774 C4.9147,21.2918774 4.8535,21.3003679 4.79485,21.2901792 C4.60275,21.257066 4.41235,21.2180094 4.23045,21.1823491 C4.13355,20.7866887 4.18285,20.402066 4.37155,20.0811226 C4.46165,20.0930094 4.5611,20.1074434 4.6597,20.1210283 C4.57385,20.070934 4.48885,20.0208396 4.3962,19.9656509 C4.40385,19.7347075 4.624,19.726217 4.7396,19.6166887 C4.66565,19.6396132 4.5917,19.6616887 4.4608,19.7007453 C4.49905,19.4672547 4.52965,19.2813113 4.55855,19.0953679 C4.51095,19.2634811 4.46675,19.4332925 4.41235,19.5988585 C4.38175,19.6956509 4.3554,19.8085755 4.28825,19.8739528 C4.1123,20.0463113 4.05535,20.2594245 4.03155,20.4886698 C4.0035,20.7552736 4.0103,21.0295189 3.95335,21.2884811 C3.88875,21.5848019 3.89895,21.8641415 4.0018,22.140934 C4.0528,22.275934 4.0443,22.3897075 3.9984,22.5272547 C3.944,22.6885755 3.9015,22.8787642 3.9338,23.0392358 C3.97715,23.2489528 3.9576,23.446783 3.93465,23.6514057 C3.8981,24.0003679 3.8641,24.3493302 3.8471,24.6999906 C3.8301,25.0769717 3.9848,25.3605566 4.35115,25.5065943 C4.42765,25.5371604 4.4965,25.5855566 4.57385,25.6152736 C4.87815,25.7332925 5.015,25.9438585 5.032,26.2775377 C5.0592,26.837066 5.2836,27.315934 5.7205,27.6852736 C5.89475,27.8313113 6.05795,27.9900849 6.2271,28.1429151 C6.4617,28.3551792 6.5807,28.6149906 6.5977,28.9325377 C6.6181,29.3103679 6.7303,29.6593302 6.90625,29.9964057 C7.0108,30.195934 7.0788,30.4175377 7.13575,30.6357453 C7.2845,31.1995189 7.31085,31.7811226 7.31425,32.3593302 C7.32105,33.3926321 7.32955,34.4250849 7.5191,35.4481981 C7.6092,35.9372547 7.6925,36.4229151 7.97725,36.8499906 C8.0291,36.9289528 8.05885,37.0452736 8.05205,37.1403679 C8.00785,37.6998962 8.2501,38.1864057 8.4252,38.6907453 C8.4592,38.7858396 8.49745,38.8834811 8.5068,38.9819717 C8.5408,39.330934 8.67595,39.5007453 9.0202,39.5881981 C9.1681,39.6255566 9.32025,39.6501792 9.4707,39.6798962 C9.486,39.7308396 9.50215,39.7698962 9.5098,39.8089528 C9.5387,39.960934 9.56845,40.1129151 9.59225,40.2665943 C9.76565,41.4196132 9.88125,42.5768774 9.8277,43.7451792 C9.67385,43.666217 8.8791,43.261217 8.7856,43.261217 L8.53655,43.261217 C8.53655,43.261217 8.59945,43.3749906 8.63005,43.3851792 C8.66065,43.3953679 8.82725,43.3851792 8.86805,43.3953679 C8.9097,43.4055566 9.4282,43.7375377 9.57355,43.7579151 C9.6526,43.7689528 9.75035,43.8054623 9.8226,43.8351792 C9.8226,43.8504623 9.82175,43.8648962 9.8209,43.8801792 C9.8158,43.9676321 9.77245,44.0550849 9.77245,44.1425377 C9.77245,44.2291415 9.8107,44.3165943 9.82005,44.4048962 C9.8243,44.4490472 9.80135,44.4965943 9.7903,44.5449906 C9.63815,44.522066 9.5064,44.4898019 9.3738,44.4821604 C9.2769,44.476217 9.18595,44.5152736 9.18085,44.6358396 C9.1766,44.7343302 9.231,44.7776321 9.32535,44.8056509 C9.4826,44.8498019 9.63815,44.9032925 9.7869,44.971217 C9.88975,45.0187642 9.97475,45.0094245 10.0317,44.9245189 C10.08695,44.8413113 10.1439,44.7445189 10.1524,44.6485755 C10.1813,44.2987642 10.19915,43.9472547 10.20595,43.5965943 C10.22635,42.4673491 10.12605,41.3448962 9.9569,40.2300849 C9.91865,39.976217 9.85745,39.7248962 9.80135,39.4735755 C9.7359,39.1831981 9.61945,38.897066 9.6067,38.6049906 C9.5846,38.1329151 9.4996,37.682066 9.33385,37.2448019 C9.2701,37.0766887 9.2718,36.9331981 9.35,36.7701792 C9.6135,36.2191415 9.59055,35.6477264 9.4333,35.0763113 C9.38315,34.8954623 9.2531,34.7324434 9.401,34.5354623 C9.4333,34.4938585 9.3976,34.4038585 9.3925,34.3333868 C9.23695,34.3350849 9.0848,34.3936698 8.98705,34.2298019 C9.0083,34.1983868 9.0202,34.1661226 9.0423,34.1491415 C9.29475,33.9589528 9.3534,33.7008396 9.30835,33.4045189 C9.2837,33.2406509 9.2531,33.0776321 9.2412,32.9129151 C9.2378,32.8500849 9.26075,32.7558396 9.30495,32.7286698 C9.3517,32.6989528 9.44775,32.7133868 9.50385,32.7431038 C9.59565,32.7915 9.673,32.867066 9.81665,32.9782925 C9.7597,32.6369717 9.71465,32.3661226 9.67045,32.102066 C10.30795,31.7785755 10.82645,32.0010283 10.999,32.6581981 C11.0704,32.9265 11.13415,33.1948019 11.1163,33.4792358 C11.10695,33.6201792 11.15625,33.7636698 11.16305,33.9080094 C11.169,34.0481038 11.1639,34.1915943 11.14775,34.3308396 C11.12735,34.5031981 11.07125,34.6747075 11.06445,34.847066 C11.0279,35.8065 11.0874,36.765934 11.06445,37.726217 C11.05085,38.3630094 10.96245,38.9777264 10.8443,39.5975377 C10.7695,39.9906509 10.75505,40.3965 10.7253,40.7972547 C10.7185,40.8838585 10.73465,41.0069717 10.79075,41.0553679 C10.8953,41.147066 10.8698,41.2387642 10.84685,41.3355566 C10.7168,41.8747075 10.7134,42.4223491 10.7508,42.9708396 C10.76695,43.2026321 10.8171,43.4327264 10.85535,43.6865943 C10.98285,43.6772547 11.07465,43.6840472 11.15965,43.6611226 C11.2523,43.6348019 11.3373,43.5813113 11.45035,43.5278208 C11.46395,43.7095189 11.45035,43.8504623 11.4886,43.9735755 C11.54895,44.1680094 11.61525,44.370934 11.73085,44.5314057 C11.8898,44.7513113 12.1856,44.7572547 12.38875,44.5772547 C12.5919,44.3964057 12.716,44.1722547 12.6871,43.8929151 C12.66925,43.7197075 12.631,43.5473491 12.59275,43.3766887 C12.4712,42.8248019 12.16775,42.317066 12.18985,41.7295189 C12.1907,41.6938585 12.12865,41.6233868 12.1006,41.626783 C12.04875,41.6310283 11.96375,41.6734811 11.9595,41.7074434 C11.9425,41.8483868 11.9238,41.9995189 11.9561,42.1345189 C12.0292,42.4444245 12.1329,42.7492358 12.223,43.0557453 C12.28505,43.2739528 12.35645,43.4904623 12.4032,43.7129151 C12.4423,43.8954623 12.44655,44.0814057 12.3267,44.2486698 C12.1482,44.4948962 11.97905,44.4889528 11.83455,44.2257453 C11.65265,43.8929151 11.68495,43.5065943 11.9204,43.2085755 C11.96205,43.155934 11.9986,43.1007453 12.0445,43.036217 C11.62205,42.8630094 11.4019,43.200934 11.08825,43.3996132 C10.92505,42.6566887 10.95905,41.9740472 11.13415,41.2837642 C11.24465,41.2718774 11.3356,41.2599906 11.42655,41.2498019 C11.22765,40.8558396 11.4444,40.5663113 11.90595,40.5671604 C11.985,40.0645189 12.0632,39.5652736 12.14395,39.0660283 C12.2621,38.3434811 12.4763,37.6464057 12.6871,36.945934 C12.7891,36.6063113 12.84095,36.2505566 12.9931,35.9219717 C13.01435,35.8778208 13.01605,35.8200849 13.0152,35.7699906 C13.0067,35.4931981 12.9948,35.2181038 12.98205,34.920934 C13.0186,34.8861226 13.1189,34.8368774 13.1393,34.7655566 C13.2413,34.396217 13.28465,34.0175377 13.21665,33.6337642 C13.2005,33.5361226 13.175,33.4342358 13.1852,33.3374434 C13.2345,32.8551792 13.31185,32.3737642 13.2413,31.8855566 C13.2311,31.8133868 13.2753,31.7301792 13.3008,31.6554623 C13.3637,31.4737642 13.46315,31.2997075 13.4283,31.1001792 C13.13165,31.0118774 13.1359,31.0093302 13.19625,30.7427264 C13.23535,30.5729151 13.2566,30.3980094 13.27445,30.2248019 C13.3042,29.9216887 13.3518,29.6381038 13.6544,29.4640472 C13.8533,29.3502736 13.93915,29.1507453 13.99015,28.9291415 C14.0301,28.7499906 14.10575,28.5793302 14.1559,28.4018774 C14.19585,28.2634811 14.2426,28.1225377 14.2477,27.9815943 C14.25535,27.7650849 14.2273,27.5485755 14.2188,27.332066 C14.21455,27.1928208 14.21795,27.0527264 14.21795,26.9126321 C14.29445,26.9160283 14.34715,26.9185755 14.3837,26.9202736 C14.39645,26.776783 14.18565,26.6740472 14.3514,26.5237642 C14.3973,26.5602736 14.43385,26.5891415 14.4942,26.6366887 C14.4517,26.1264057 14.73815,25.8801792 15.1555,25.7366887 C15.20395,25.7188585 15.25155,25.6984811 15.2983,25.6781038 C15.3646,25.6492358 15.4309,25.6186698 15.4955,25.5864057 C15.72415,25.4700849 15.86355,25.2951792 15.878,25.0294245 C15.88055,24.976783 15.92815,24.9275377 15.95535,24.8774434 C16.0055,24.9165 16.06075,25.0795189 16.1126,25.1151792 C16.12365,25.1228208 16.14065,24.9929151 16.17975,24.9878208 C16.26475,24.7033868 16.42115,24.3646132 16.4934,24.0097075 C16.3795,23.9604623 16.252,24.0249906 16.1653,23.9876321 C16.39565,23.2608396 16.1942,22.7641415 16.048,22.2530094 C16.0276,22.1799906 16.0055,22.2572547 15.99615,22.140934 C16.18995,22.1689528 16.3472,22.1910283 16.5155,22.2156509 C16.5954,22.0008396 16.6804,21.7902736 16.75265,21.5763113 C16.81215,21.3988585 16.78155,21.2349906 16.65575,21.0864057 Z" id="Fill-1" fill="#B18C51" mask="url(#mask-2)"></path>
            </g>
        </g>
    </g>
</svg>